# xmcd CD database file
#
# Track frame offsets:
#	150
#	43266
#	65013
#	92868
#	126890
#	154581
#	180680
#	204085
#	221934
#
# Disc length: 3481 seconds
#
# Revision: 0
# Processed by: cddbd v1.5.2PL0 Copyright (c) Steve Scherf et al.
# Submitted via: CDex 1.70beta2
#
DISCID=840d9709
DTITLE=Art Blakey - 3 Originals CD1
DYEAR=2010
DGENRE=Jazz
TTITLE0=Moanin' - Moanin
TTITLE1=Moanin' - Are You Real
TTITLE2=Moanin' - Along Came Betty
TTITLE3=Moanin' - The Drum Thunder
TTITLE4=Moanin' - Blues March
TTITLE5=Moanin' - Come Rain Or Come Shine
TTITLE6=Drum Suite - The Sacrifice
TTITLE7=Drum Suite - Cubano Chant
TTITLE8=Drum Suite - Oscalypso
EXTD=YEAR: 2010
EXTT0=
EXTT1=
EXTT2=
EXTT3=
EXTT4=
EXTT5=
EXTT6=
EXTT7=
EXTT8=
PLAYORDER=
